<svg width="12" height="16" viewBox="0 0 15 19" fill="none" xmlns="http://www.w3.org/2000/svg">
<path d="M3.35519 18.1602C3.55045 18.3555 3.86703 18.3555 4.06229 18.1602L7.24427 14.9782C7.43954 14.783 7.43954 14.4664 7.24427 14.2711C7.04901 14.0758 6.73243 14.0758 6.53717 14.2711L3.70874 17.0995L0.880313 14.2711C0.68505 14.0758 0.368468 14.0758 0.173206 14.2711C-0.0220564 14.4664 -0.0220565 14.783 0.173206 14.9782L3.35519 18.1602ZM3.20874 1.10352L3.20874 17.8066L4.20874 17.8066L4.20874 1.10352L3.20874 1.10352Z" fill="#666666"/>
<path d="M10.1047 0.749962C10.3 0.554701 10.6165 0.554701 10.8118 0.749962L13.9938 3.93194C14.189 4.1272 14.189 4.44379 13.9938 4.63905C13.7985 4.83431 13.4819 4.83431 13.2867 4.63905L10.4583 1.81062L7.62982 4.63905C7.43456 4.83431 7.11798 4.83431 6.92272 4.63905C6.72746 4.44379 6.72746 4.12721 6.92272 3.93194L10.1047 0.749962ZM9.95825 17.8066L9.95825 1.10352L10.9583 1.10352L10.9583 17.8066L9.95825 17.8066Z" fill="#666666"/>
</svg>
