<svg id="Layer_35" enable-background="new 0 0 64 64" height="512" viewBox="0 0 64 64" width="512" xmlns="http://www.w3.org/2000/svg" xmlns:xlink="http://www.w3.org/1999/xlink"><linearGradient id="SVGID_1_" gradientUnits="userSpaceOnUse" x1="32" x2="32" y1="63" y2="1"><stop offset="0" stop-color="#9f2fff"/><stop offset="1" stop-color="#0bb1d3"/></linearGradient><path d="m60 13c0-6.617-5.383-12-12-12h-.747c-2.976 0-5.874 1.049-8.161 2.955l-.394.329-2.369-2.369c-.582-.582-1.386-.915-2.208-.915-1.721 0-3.121 1.4-3.121 3.121 0 .834.324 1.618.914 2.207l7.758 7.758c.581.581 1.385.914 2.207.914 1.721 0 3.121-1.4 3.121-3.121 0-.834-.324-1.618-.914-2.207l-.922-.922.434-.347c1.131-.905 2.55-1.403 3.999-1.403 3.531 0 6.403 2.873 6.403 6.403v10.902c-.74-.221-1.512-.335-2.297-.299-.87-2.911-3.599-5.006-6.703-5.006-2.636 0-4.934 1.466-6.128 3.624-.898-.405-1.871-.624-2.872-.624-2.264 0-4.339 1.08-5.645 2.87-1.008-.551-2.151-.87-3.355-.87-1.051 0-2.059.246-2.972.676l-.03-.131c-1.138-4.93-5.075-8.554-9.917-9.37 1.781-1.469 2.919-3.691 2.919-6.175 0-4.411-3.589-8-8-8s-8 3.589-8 8c0 3.641 2.448 6.716 5.782 7.681-2.285 1.633-3.782 4.302-3.782 7.319v3c0 1.438.347 2.793.95 4h-2.95v7c0 6.065 4.935 11 11 11h27v7c0 .551-.448 1-1 1h-18c-1.654 0-3 1.346-3 3s1.346 3 3 3h40c1.654 0 3-1.346 3-3s-1.346-3-3-3h-14c-.552 0-1-.449-1-1v-7h7c6.065 0 11-4.935 11-11v-7h-3zm-18.121 0c-.295 0-.584-.12-.793-.328l-7.758-7.758c-.212-.212-.328-.493-.328-.793 0-.618.503-1.121 1.121-1.121.295 0 .584.12.793.328l7.758 7.758c.212.212.328.493.328.793 0 .618-.503 1.121-1.121 1.121zm5.718-8c-1.9 0-3.765.654-5.249 1.841l-.607.485-1.623-1.623.255-.213c1.927-1.605 4.371-2.49 6.88-2.49h.747c5.514 0 10 4.486 10 10v18h-2v-17.597c0-4.633-3.77-8.403-8.403-8.403zm-44.597 4c0-3.309 2.691-6 6-6s6 2.691 6 6-2.691 6-6 6-6-2.691-6-6zm2 15c0-3.86 3.141-7 7-7 4.83 0 8.963 3.288 10.049 7.994l.202.878c-.644.595-1.169 1.316-1.556 2.128h-9.695v-3h-2v5h17c1.103 0 2 .897 2 2s-.897 2-2 2h-14c-3.859 0-7-3.14-7-7zm7 23c-4.963 0-9-4.038-9-9v-5h2.311c1.649 1.836 4.033 3 6.689 3h14c1.859 0 3.411-1.28 3.858-3h.142c.552 0 1 .449 1 1v8c0 1.654 1.346 3 3 3s3-1.346 3-3v-4c0-.551.448-1 1-1s1 .449 1 1v9zm31-13v22c0 1.654 1.346 3 3 3h14c.552 0 1 .449 1 1s-.448 1-1 1h-40c-.552 0-1-.449-1-1s.448-1 1-1h18c1.654 0 3-1.346 3-3v-18c0-1.654-1.346-3-3-3s-3 1.346-3 3v4c0 .551-.448 1-1 1s-1-.449-1-1v-8c0-1.654-1.346-3-3-3h-.142c-.447-1.72-1.999-3-3.858-3h-2.998c.929-1.234 2.4-2 3.998-2 2.144 0 4.047 1.363 4.735 3.391l1.895-.644c-.352-1.036-.935-1.944-1.673-2.685.932-1.285 2.42-2.062 4.043-2.062.758 0 1.496.171 2.167.495-.107.485-.167.988-.167 1.505h2c0-2.757 2.243-5 5-5 2.45 0 4.572 1.827 4.937 4.25l.154 1.02 1.014-.185c.316-.057.608-.085.895-.085.692 0 1.372.148 2 .422v4.578h-8c-1.654 0-3 1.346-3 3zm18 4c0 4.962-4.037 9-9 9h-7v-13c0-.551.448-1 1-1h15zm-28.949-19.464 1.414-1.414 1.414 1.414-1.414 1.414zm-1.415 1.414 1.414 1.414-1.414 1.415-1.414-1.414zm5.657-2.829-1.414-1.414 1.414-1.414 1.414 1.414zm-3-5.828 1.414 1.414-1.414 1.414-1.414-1.414zm-5.657 5.657 1.414 1.414-1.414 1.415-1.414-1.414zm2.829-2.828 1.414 1.414-1.414 1.414-1.414-1.414zm-5.829 2.656-1.414-1.414 1.414-1.415 1.414 1.414zm2.829-2.828-1.414-1.414 1.414-1.414 1.414 1.414zm2.828-2.829-1.414-1.414 1.414-1.414 1.414 1.414zm-18.293 31.879h4v2h-4c-3.859 0-7-3.14-7-7v-1h2v1c0 2.757 2.243 5 5 5zm6 0h2v2h-2zm34 2h-1v-2h1c2.757 0 5-2.243 5-5v-3h2v3c0 3.86-3.141 7-7 7z" fill="#1d4988"/></svg>