<svg width="41" height="42" viewBox="0 0 41 42" fill="none" xmlns="http://www.w3.org/2000/svg">
<g clip-path="url(#clip0)">
<path d="M20.5001 14.2412C16.8597 14.2412 13.9019 17.2712 13.9019 21.0004C13.9019 24.7296 16.8597 27.7595 20.5001 27.7595C24.1405 27.7595 27.0983 24.7296 27.0983 21.0004C27.0983 17.2712 24.1405 14.2412 20.5001 14.2412ZM19.9995 18.9959C19.1804 18.9959 18.4979 19.6952 18.4979 20.5342H16.3136C16.3591 18.4366 17.9973 16.7584 19.9995 16.7584V18.9959Z" fill="white"/>
<path d="M40.5222 19.6013C38.2925 16.7578 30.3291 7.48145 20.5 7.48145C10.6709 7.48145 2.70755 16.7578 0.477802 19.6013C-0.159267 20.3938 -0.159267 21.5591 0.477802 22.3982C2.70755 25.2417 10.6709 34.5181 20.5 34.5181C30.3291 34.5181 38.2925 25.2417 40.5222 22.3982C41.1593 21.6058 41.1593 20.4404 40.5222 19.6013ZM20.5 30.7889C15.2214 30.7889 10.944 26.4071 10.944 20.9998C10.944 15.5924 15.2214 11.2106 20.5 11.2106C25.7786 11.2106 30.056 15.5924 30.056 20.9998C30.056 26.4071 25.7786 30.7889 20.5 30.7889Z" fill="white"/>
</g>
<defs>
<clipPath id="clip0">
<rect width="41" height="42" fill="white"/>
</clipPath>
</defs>
</svg>
