<svg width="59" height="60" viewBox="0 0 59 60" fill="none" xmlns="http://www.w3.org/2000/svg">
<path d="M14.2583 15.25C12.2916 13.25 3.93329 12.7501 1.22909 12.5C0.983295 12.5 0.737385 12.5 0.49159 12.75C0.245795 13 0 13.5001 0 13.75V36.25C0 37 0.491705 37.5001 1.22921 37.5001H8.60421C9.09591 37.5001 9.5875 37.2501 9.83341 36.7501C9.83341 36.0001 14.2584 22.75 14.7501 16.2501C14.75 16 14.75 15.5001 14.2583 15.25Z" fill="white"/>
<path d="M40.5628 21.25C38.1045 20.5 35.892 19.5 33.9253 18.75C29.5003 16.75 27.5336 17.75 23.6003 21.75C21.8795 23.5 20.6503 26 20.8961 27C20.8961 27.25 20.8961 27.25 21.3878 27.5001C22.617 28.0001 24.3378 28.2501 26.0586 25.5C26.3044 25.2501 26.5503 25 27.0419 25C27.7794 25 28.0251 24.75 28.7626 24.4999C29.2544 24.25 29.7459 23.9999 30.4834 23.7499C30.7292 23.7499 30.7292 23.7499 30.9752 23.7499C31.2209 23.7499 31.7126 23.9999 31.9584 23.9999C33.1878 25.25 35.4003 27 37.6128 29.0001C41.0545 31.7501 44.4961 34.7501 46.217 37.0001H46.4628C44.742 32.0001 41.792 23.5 40.5628 21.25Z" fill="white"/>
<path d="M57.7707 15C48.1832 15 42.7749 17.5 42.529 17.5C42.2832 17.7499 42.0373 18 41.7915 18.25C41.7915 18.4999 41.7915 19 42.0373 19.2499C43.5123 21.7499 48.429 35.5 49.1665 38.9999C49.4123 39.4999 49.904 39.9998 50.3957 39.9998H57.7707C58.5082 39.9998 58.9999 39.4998 58.9999 38.7498V16.2498C58.9999 15.5 58.5082 15 57.7707 15Z" fill="white"/>
<path d="M44.4956 39.5C43.5123 37.25 39.3331 34 35.6456 31C33.679 29.25 31.7123 27.75 30.2373 26.4999C29.9915 26.7499 29.4998 26.7499 29.4998 27C28.7623 27.2499 28.5165 27.5 27.5331 27.5C25.5665 30 23.1081 30.9999 20.404 30C19.1748 29.75 18.4373 28.7499 18.1915 27.75C17.6998 25.25 19.9123 21.75 21.6332 20H16.7165C15.7332 25 14.0123 31.5 12.7832 35C13.7665 36 14.7499 37.25 15.4874 37.75C20.1582 41.75 25.5666 45.7501 26.5499 46.5001C27.2874 47.0001 28.7624 47.5 29.4999 47.5C29.7457 47.5 29.9916 47.5 30.2374 47.5L26.304 43.5C25.8123 42.9999 25.8123 42.2499 26.304 41.75C26.7957 41.2501 27.5332 41.25 28.0248 41.75L32.9415 46.75C33.4332 47.2501 33.9248 47 34.4165 47C35.154 46.75 35.3998 46.25 35.6457 45.5L29.9915 39.75C29.4998 39.2499 29.4998 38.4999 29.9915 38C30.4832 37.5001 31.2207 37.5 31.7123 38L37.8581 44.25C38.1039 44.4999 39.0873 44.4999 39.8248 44.25C40.0706 44 40.5623 43.7499 40.8081 43.25L33.9248 36.2499C33.4331 35.7499 33.4331 34.9999 33.9248 34.5C34.4165 34 35.154 33.9999 35.6456 34.5L42.7748 41.75C43.2665 42 43.7581 41.75 44.2498 41.5C44.4956 41.25 44.9873 40.5 44.4956 39.5Z" fill="white"/>
</svg>
