<svg width="16" height="16" viewBox="0 0 16 16" fill="none" xmlns="http://www.w3.org/2000/svg">
<path d="M15.5582 6.70396C15.5579 6.70362 15.5575 6.70328 15.5572 6.70293L9.43839 0.584351C9.17757 0.323425 8.83082 0.179688 8.46198 0.179688C8.09313 0.179688 7.74638 0.323311 7.48545 0.584236L1.36984 6.69973C1.36778 6.70179 1.36572 6.70396 1.36366 6.70602C0.828079 7.2447 0.828995 8.11868 1.3663 8.65598C1.61177 8.90157 1.93598 9.04382 2.28262 9.0587C2.2967 9.06007 2.31089 9.06076 2.3252 9.06076H2.56907V13.5637C2.56907 14.4547 3.29405 15.1797 4.18532 15.1797H6.57919C6.82181 15.1797 7.01865 14.983 7.01865 14.7402V11.21C7.01865 10.8034 7.34938 10.4726 7.75599 10.4726H9.16796C9.57457 10.4726 9.9053 10.8034 9.9053 11.21V14.7402C9.9053 14.983 10.102 15.1797 10.3448 15.1797H12.7386C13.6299 15.1797 14.3549 14.4547 14.3549 13.5637V9.06076H14.581C14.9497 9.06076 15.2965 8.91714 15.5575 8.65621C16.0954 8.118 16.0956 7.24252 15.5582 6.70396Z" fill="#5CB45B"/>
</svg>
