<svg width="49" height="39" viewBox="0 0 49 39" fill="none" xmlns="http://www.w3.org/2000/svg">
<path d="M29.6139 6.6795C31.8083 7.98407 33.347 10.1917 33.6271 12.7542C34.522 13.1507 35.5152 13.3787 36.5683 13.3787C40.4126 13.3787 43.5285 10.4242 43.5285 6.77946C43.5285 3.1342 40.4126 0.179688 36.5683 0.179688C32.7606 0.180811 29.672 3.08253 29.6139 6.6795ZM25.0541 20.1924C28.8985 20.1924 32.0144 17.2373 32.0144 13.5926C32.0144 9.94794 28.8979 6.99343 25.0541 6.99343C21.2103 6.99343 18.0927 9.9485 18.0927 13.5932C18.0927 17.2379 21.2103 20.1924 25.0541 20.1924ZM28.0065 20.6423H22.1005C17.1865 20.6423 13.1887 24.4335 13.1887 29.093V35.9416L13.2071 36.0488L13.7046 36.1965C18.3941 37.5859 22.4683 38.0492 25.8217 38.0492C32.3715 38.0492 36.1679 36.2785 36.4018 36.1656L36.8668 35.9427H36.9165V29.093C36.9183 24.4335 32.9205 20.6423 28.0065 20.6423ZM39.5219 13.8291H33.6614C33.5981 16.0524 32.5971 18.0545 31.014 19.4944C35.382 20.7259 38.5778 24.5666 38.5778 29.1031V31.2136C44.3642 31.0125 47.6986 29.4575 47.9184 29.353L48.3833 29.1295H48.433V22.2787C48.433 17.6198 44.4353 13.8291 39.5219 13.8291ZM12.8411 13.3798C14.2027 13.3798 15.4695 13.003 16.5427 12.3611C16.8838 10.2512 18.0767 8.40751 19.7806 7.1518C19.7877 7.02825 19.8001 6.90582 19.8001 6.78115C19.8001 3.13588 16.6837 0.181372 12.8411 0.181372C8.9961 0.181372 5.8808 3.13588 5.8808 6.78115C5.8808 10.4247 8.9961 13.3798 12.8411 13.3798ZM19.0918 19.4944C17.5164 18.0618 16.519 16.0704 16.4462 13.8605C16.2288 13.8454 16.0138 13.8291 15.7923 13.8291H9.88686C4.97287 13.8291 0.975098 17.6198 0.975098 22.2787V29.1284L0.993458 29.234L1.49096 29.3828C5.25301 30.4964 8.61054 31.0097 11.5268 31.1715V29.1031C11.528 24.5666 14.7227 20.7271 19.0918 19.4944Z" fill="white"/>
</svg>
