<svg height="548pt" viewBox="1 -89 548.991 548" width="548pt" xmlns="http://www.w3.org/2000/svg" xmlns:xlink="http://www.w3.org/1999/xlink"><linearGradient id="a"><stop offset="0" stop-color="#662d91"/><stop offset=".437" stop-color="#3873b3"/><stop offset="1" stop-color="#00c9dd"/></linearGradient><linearGradient id="b" gradientUnits="userSpaceOnUse" x1="82.5031200288" x2="476.3164209408" xlink:href="#a" y1="-7.0011759824" y2="386.8121249296"/><linearGradient id="c" gradientUnits="userSpaceOnUse" x1="82.5030200272" x2="476.3163209392" xlink:href="#a" y1="-7.0010759808" y2="386.8122249312"/><linearGradient id="d" gradientUnits="userSpaceOnUse" x1="-43.4964959328" x2="350.3168049792" xlink:href="#a" y1="118.9984399792" y2="512.8117408912"/><linearGradient id="e" gradientUnits="userSpaceOnUse" x1="186.6355861216" x2="580.4579871792" xlink:href="#a" y1="-111.1425422176" y2="282.6796588368"/><path d="m90 180.496094c0 99.414062 80.589844 180 180 180s180-80.585938 180-180c0-99.410156-80.589844-180-180-180-99.363281.113281-179.886719 80.636718-180 180zm342 0c0 89.472656-72.53125 162-162 162s-162-72.53125-162-162 72.53125-162 162-162c89.425781.105468 161.894531 72.574218 162 162zm0 0" fill="#1d4988"/><path d="m144 180.496094c0 69.589844 56.414062 126 126 126 69.589844 0 126-56.410156 126-126 0-69.585938-56.410156-126-126-126-69.558594.074218-125.925781 56.445312-126 126zm234 0c0 59.648437-48.351562 108-108 108s-108-48.351563-108-108c0-59.644532 48.355469-108 108-108 59.621094.066406 107.9375 48.378906 108 108zm0 0" fill="#1d4988"/><path d="m27 360.496094c0 4.972656 4.03125 9 9 9s9-4.027344 9-9v-216h27v-81c0-4.96875-4.027344-9-9-9-4.96875 0-9 4.027344-9 9v63h-9v-63c0-4.96875-4.027344-9-9-9-4.96875 0-9 4.027344-9 9v63h-9v-63c0-4.96875-4.027344-9-9-9s-9 4.027344-9 9v81h27zm0 0" fill="#1d4988"/><path d="m504 54.496094c-24.8125 0-45 26.246094-45 58.5 0 28.351562 15.605469 52.046875 36.226562 57.367187-.097656.371094-.175781.75-.226562 1.132813v189c0 4.972656 4.027344 9 9 9s9-4.027344 9-9v-189c-.050781-.382813-.125-.761719-.222656-1.132813 20.617187-5.320312 36.222656-29.015625 36.222656-57.367187 0-32.253906-20.1875-58.5-45-58.5zm0 99c-14.632812 0-27-18.550782-27-40.5 0-21.949219 12.367188-40.5 27-40.5s27 18.550781 27 40.5c0 21.949218-12.367188 40.5-27 40.5zm0 0" fill="#1d4988"/></svg>