<svg width="72" height="14" viewBox="0 0 62 11" fill="none" xmlns="http://www.w3.org/2000/svg">
<path d="M4.13135 6.20312L6.42139 0.426758H7.9458L4.42529 8.71875C4.18831 9.2474 3.96729 9.62337 3.76221 9.84668C3.55713 10.0654 3.31559 10.234 3.0376 10.3525C2.76416 10.4665 2.42008 10.5234 2.00537 10.5234C1.64535 10.5234 1.4152 10.5029 1.31494 10.4619L1.35596 9.42285L1.97803 9.4502C2.45654 9.4502 2.81201 9.22005 3.04443 8.75977L3.21533 8.4043L3.4751 7.7959L0.0844727 0.426758H1.5542L4.13135 6.20312ZM14.7407 10.3799H13.4692V7.7002C12.9132 7.84603 12.3436 7.91895 11.7603 7.91895C10.8351 7.91895 10.1287 7.68197 9.64111 7.20801C9.15804 6.73405 8.91195 6.05957 8.90283 5.18457V2.97656H10.1675V5.22559C10.1903 6.32845 10.7212 6.87988 11.7603 6.87988C12.3436 6.87988 12.9132 6.80697 13.4692 6.66113V2.9834H14.7407V10.3799ZM21.3374 10.3799C21.2645 10.234 21.2052 9.97428 21.1597 9.60059C20.5718 10.2113 19.87 10.5166 19.0542 10.5166C18.325 10.5166 17.7257 10.3115 17.2563 9.90137C16.7915 9.48665 16.5591 8.96257 16.5591 8.3291C16.5591 7.55892 16.8507 6.96191 17.4341 6.53809C18.022 6.1097 18.8468 5.89551 19.9087 5.89551H21.1392V5.31445C21.1392 4.8724 21.007 4.52148 20.7427 4.26172C20.4784 3.9974 20.0887 3.86523 19.5737 3.86523C19.1226 3.86523 18.7443 3.97917 18.439 4.20703C18.1336 4.4349 17.981 4.71061 17.981 5.03418H16.7095C16.7095 4.66504 16.8394 4.30957 17.0991 3.96777C17.3634 3.62142 17.7189 3.34798 18.1655 3.14746C18.6167 2.94694 19.1112 2.84668 19.6489 2.84668C20.5011 2.84668 21.1688 3.06087 21.6519 3.48926C22.1349 3.91309 22.3856 4.4987 22.4038 5.24609V8.65039C22.4038 9.32943 22.4904 9.86947 22.6636 10.2705V10.3799H21.3374ZM19.2388 9.41602C19.6353 9.41602 20.0112 9.31348 20.3667 9.1084C20.7222 8.90332 20.9797 8.63672 21.1392 8.30859V6.79102H20.1479C18.5985 6.79102 17.8237 7.24447 17.8237 8.15137C17.8237 8.54785 17.9559 8.85775 18.2202 9.08105C18.4845 9.30436 18.8241 9.41602 19.2388 9.41602ZM27.353 9.48438C27.8042 9.48438 28.1984 9.34766 28.5356 9.07422C28.8729 8.80078 29.0597 8.45898 29.0962 8.04883H30.2925C30.2697 8.47266 30.1239 8.87598 29.855 9.25879C29.5861 9.6416 29.2261 9.94694 28.7749 10.1748C28.3283 10.4027 27.8543 10.5166 27.353 10.5166C26.3459 10.5166 25.5438 10.1816 24.9468 9.51172C24.3543 8.83724 24.0581 7.91667 24.0581 6.75V6.53809C24.0581 5.81803 24.1903 5.17773 24.4546 4.61719C24.7189 4.05664 25.0972 3.62142 25.5894 3.31152C26.0861 3.00163 26.6717 2.84668 27.3462 2.84668C28.1756 2.84668 28.8638 3.09505 29.4106 3.5918C29.9621 4.08854 30.256 4.7334 30.2925 5.52637H29.0962C29.0597 5.04785 28.8774 4.65592 28.5493 4.35059C28.2257 4.04069 27.8247 3.88574 27.3462 3.88574C26.7036 3.88574 26.2046 4.11816 25.8491 4.58301C25.4982 5.04329 25.3228 5.71094 25.3228 6.58594V6.8252C25.3228 7.67741 25.4982 8.33366 25.8491 8.79395C26.2 9.25423 26.7013 9.48438 27.353 9.48438ZM37.7573 10.3799H36.4927V7.22168H33.0952V10.3799H31.8237V2.9834H33.0952V6.18945H36.4927V2.9834H37.7573V10.3799ZM44.5796 2.9834H45.8442V10.3799H44.5796V4.98633L41.1685 10.3799H39.9038V2.9834H41.1685V8.38379L44.5796 2.9834ZM50.1782 7.22852H49.2554V10.3799H47.9839V2.9834H49.2554V6.11426H50.0825L52.5708 2.9834H54.1021L51.1763 6.53809L54.3481 10.3799H52.7417L50.1782 7.22852ZM60.0015 10.3799C59.9285 10.234 59.8693 9.97428 59.8237 9.60059C59.2358 10.2113 58.534 10.5166 57.7183 10.5166C56.9891 10.5166 56.3898 10.3115 55.9204 9.90137C55.4556 9.48665 55.2231 8.96257 55.2231 8.3291C55.2231 7.55892 55.5148 6.96191 56.0981 6.53809C56.686 6.1097 57.5109 5.89551 58.5728 5.89551H59.8032V5.31445C59.8032 4.8724 59.6711 4.52148 59.4067 4.26172C59.1424 3.9974 58.7528 3.86523 58.2378 3.86523C57.7866 3.86523 57.4084 3.97917 57.103 4.20703C56.7977 4.4349 56.645 4.71061 56.645 5.03418H55.3735C55.3735 4.66504 55.5034 4.30957 55.7632 3.96777C56.0275 3.62142 56.383 3.34798 56.8296 3.14746C57.2808 2.94694 57.7752 2.84668 58.313 2.84668C59.1652 2.84668 59.8328 3.06087 60.3159 3.48926C60.799 3.91309 61.0496 4.4987 61.0679 5.24609V8.65039C61.0679 9.32943 61.1545 9.86947 61.3276 10.2705V10.3799H60.0015ZM57.9028 9.41602C58.2993 9.41602 58.6753 9.31348 59.0308 9.1084C59.3862 8.90332 59.6437 8.63672 59.8032 8.30859V6.79102H58.812C57.2625 6.79102 56.4878 7.24447 56.4878 8.15137C56.4878 8.54785 56.62 8.85775 56.8843 9.08105C57.1486 9.30436 57.4881 9.41602 57.9028 9.41602Z" fill="white"/>
</svg>
