<svg width="22" height="22" viewBox="0 0 22 22" fill="none" xmlns="http://www.w3.org/2000/svg">
<g clip-path="url(#clip0)">
<path d="M16.645 6.07812L15.5536 8.66419C15.3473 9.13522 14.8392 9.50137 14.346 9.50137H12.521V9.82601C12.521 10.0953 12.4624 10.3154 12.1911 10.3154H9.89402C9.6227 10.3154 9.24 10.0954 9.24 9.82601V9.50137H7.71911C7.22553 9.50137 6.67768 9.13522 6.47172 8.66419L5.34512 6.08813C5.01887 6.35691 4.81055 6.76407 4.81055 7.2171V19.107C4.81055 19.8608 5.38729 20.4829 6.12547 20.5631C6.20006 21.03 6.60729 21.3886 7.09835 21.3886C7.58588 21.3886 7.99127 21.0616 8.06989 20.5733H14.0184C14.0968 21.0616 14.5021 21.3886 14.9896 21.3886C15.4808 21.3886 15.8082 21.03 15.8825 20.5629C16.6193 20.4812 17.1144 19.8596 17.1144 19.1072V7.21726C17.1146 6.75741 16.9795 6.3469 16.645 6.07812ZM15.4686 18.4564H6.61317C6.34169 18.4564 6.12094 18.236 6.12094 17.968C6.12094 17.7001 6.34169 17.4797 6.61317 17.4797H15.4686C15.7399 17.4797 15.9608 17.7001 15.9608 17.968C15.9608 18.236 15.74 18.4564 15.4686 18.4564ZM15.4686 15.5257H6.61317C6.34169 15.5257 6.12094 15.3051 6.12094 15.0372C6.12094 14.7692 6.34169 14.5488 6.61317 14.5488H15.4686C15.7399 14.5488 15.9608 14.7692 15.9608 15.0372C15.9608 15.3051 15.74 15.5257 15.4686 15.5257ZM15.4686 12.595H6.61317C6.34169 12.595 6.12094 12.3744 6.12094 12.1066C6.12094 11.8387 6.34169 11.6181 6.61317 11.6181H15.4686C15.7399 11.6181 15.9608 11.8385 15.9608 12.1066C15.9608 12.3744 15.74 12.595 15.4686 12.595Z" fill="white"/>
<path d="M15.7977 5.75605H12.8491V1.03343C12.8491 0.763988 12.7853 0.545898 12.5138 0.545898H9.57348C9.30217 0.545898 9.07604 0.764155 9.07604 1.03343V5.75605H6.28743C6.16496 5.75605 6.04652 5.77006 5.93262 5.79807L7.074 8.40581C7.17631 8.64007 7.48392 8.84966 7.71928 8.84966H14.3462C14.5812 8.84966 14.8888 8.63891 14.9914 8.40448L16.1348 5.79206C16.0263 5.76655 15.9139 5.75605 15.7977 5.75605ZM11.865 5.75605H10.0603V1.5228H11.865V5.75605Z" fill="white"/>
</g>
<defs>
<clipPath id="clip0">
<rect x="0.462402" y="0.545898" width="21" height="20.8421" fill="white"/>
</clipPath>
</defs>
</svg>
