<svg width="53" height="54" viewBox="0 0 53 54" fill="none" xmlns="http://www.w3.org/2000/svg">
<g clip-path="url(#clip0)">
<path d="M51.9658 23.3027C51.7855 22.9114 51.4005 22.6611 50.9745 22.6611H47.7362C45.6773 11.2731 35.8661 2.61621 24.1066 2.61621C10.8535 2.61621 0.0698242 13.6073 0.0698242 27.1152C0.0698242 40.6232 10.8524 51.6131 24.1066 51.6131C32.6599 51.6131 40.6367 46.921 44.9239 39.3704C45.5279 38.3048 45.1717 36.9437 44.1251 36.3269C43.0807 35.7101 41.7442 36.0732 41.1412 37.1388C37.6318 43.3194 31.1043 47.1601 24.1066 47.1601C13.2632 47.1601 4.43994 38.1683 4.43994 27.1175C4.43994 16.0644 13.2632 7.07263 24.1066 7.07263C33.4465 7.07263 41.2718 13.7494 43.2654 22.6622H40.0526C39.6266 22.6622 39.2427 22.9125 39.0613 23.3038C38.8809 23.6951 38.9396 24.1563 39.2117 24.489L44.6749 31.1702C44.8829 31.4239 45.1894 31.5705 45.5146 31.5705C45.8388 31.5705 46.1464 31.4228 46.3533 31.1702L51.8165 24.489C52.0886 24.1552 52.1462 23.694 51.9658 23.3027Z" fill="white"/>
<path d="M24.1068 8.18457C22.8997 8.18457 21.9217 9.1814 21.9217 10.4117V23.9252C20.9337 24.6311 20.2832 25.7949 20.2832 27.1164C20.2832 29.2657 21.9992 31.0147 24.1079 31.0147C24.6854 31.0147 25.2297 30.8737 25.721 30.6381L33.3216 35.1091C33.6668 35.3132 34.0408 35.4091 34.4125 35.4091C35.1671 35.4091 35.9017 35.0099 36.3066 34.295C36.9096 33.2316 36.5522 31.8683 35.5056 31.2537L27.8972 26.7759C27.7954 25.5986 27.1946 24.5702 26.2941 23.9275V10.4117C26.2918 9.18253 25.3127 8.18457 24.1068 8.18457ZM24.1068 28.7853C23.2029 28.7853 22.4683 28.0355 22.4683 27.1164C22.4683 26.1963 23.204 25.4464 24.1068 25.4464C25.0096 25.4464 25.7453 26.1963 25.7453 27.1164C25.7453 28.0355 25.0096 28.7853 24.1068 28.7853Z" fill="white"/>
</g>
<defs>
<clipPath id="clip0">
<rect x="0.0698242" y="0.614258" width="52" height="53" fill="white"/>
</clipPath>
</defs>
</svg>
