<svg id="Layer_35" enable-background="new 0 0 64 64" height="512" viewBox="0 0 64 64" width="512" xmlns="http://www.w3.org/2000/svg" xmlns:xlink="http://www.w3.org/1999/xlink"><linearGradient id="SVGID_1_" gradientUnits="userSpaceOnUse" x1="32" x2="32" y1="63" y2="1"><stop offset="0" stop-color="#9f2fff"/><stop offset="1" stop-color="#0bb1d3"/></linearGradient><path d="m57.704 39.711c1.396-1.1 2.296-2.801 2.296-4.711 0-3.309-2.691-6-6-6h-21.843l.782-10.165c1.193-.397 2.061-1.511 2.061-2.835 0-1.654-1.346-3-3-3h-10.867l.75-6h10.117v-6h-11.611c-2.455 0-4.529 1.757-4.932 4.178l-1.304 7.822h-10.153c-1.654 0-3 1.346-3 3 0 1.324.868 2.438 2.061 2.835l1.675 21.774c-2.455 1.595-3.736 3.418-3.736 5.391v6c0 7.145 15.972 11 31 11s31-3.855 31-11v-6c0-2.339-1.825-4.491-5.296-6.289zm-5.813 12.328c-.351 1.2-.682 2.333-1.399 2.759-.666.396-1.761.137-2.92-.139-.839-.199-1.707-.405-2.571-.405s-1.732.206-2.571.405c-1.159.275-2.254.534-2.92.139-.717-.426-1.049-1.56-1.399-2.759-.241-.823-.49-1.674-.901-2.403-.396-.703-.98-1.329-1.544-1.934-.858-.917-1.666-1.783-1.666-2.702s.809-1.785 1.664-2.703c.564-.605 1.148-1.23 1.545-1.933.411-.729.66-1.58.9-2.403.351-1.2.682-2.333 1.399-2.759.246-.145.55-.202.893-.202.589 0 1.296.167 2.028.341.839.199 1.707.405 2.571.405s1.732-.206 2.571-.405c1.158-.276 2.253-.535 2.92-.139.717.426 1.049 1.56 1.399 2.759.241.823.49 1.674.901 2.403.396.703.98 1.329 1.544 1.934.857.917 1.665 1.783 1.665 2.702s-.809 1.785-1.664 2.703c-.564.605-1.148 1.23-1.545 1.933-.411.729-.66 1.58-.9 2.403zm-33.891-17.039c0-2.077 1.597-3.769 3.624-3.962l4.156 4.156c-.505-.118-1.085-.194-1.788-.194-2.015 0-3.067.601-3.996 1.132-.491.28-.944.536-1.549.697-.289-.563-.447-1.19-.447-1.829zm20.488-1.518c-.125.074-.234.161-.344.248l-2.73-2.73h8.172l2.601 2.601c-.419.084-.819.145-1.187.145-.63 0-1.349-.17-2.109-.351-1.427-.338-3.04-.721-4.403.087zm-1.793 1.627c-1.203.192-1.985.627-2.685 1.025-.82.464-1.527.866-3.014.866-.221 0-.421-.011-.61-.028l-5.972-5.972h8.172zm-19.702 3.891c2.015 0 3.067-.601 3.996-1.132.815-.466 1.519-.868 3.003-.868 1.485 0 2.19.402 3.006.868.929.531 1.981 1.132 3.998 1.132 2.015 0 3.07-.599 4.001-1.127.403-.229.779-.44 1.23-.597-.012.041-.025.083-.037.124-.218.748-.425 1.453-.723 1.981-.279.496-.758 1.008-1.265 1.552-.514.55-1.061 1.138-1.482 1.799-.509.171-1.057.268-1.724.268-1.485 0-2.19-.402-3.006-.868-.928-.531-1.981-1.132-3.998-1.132-2.015 0-3.067.601-3.996 1.132-.815.466-1.518.868-3.003.868-1.482 0-2.186-.402-3-.868-.759-.434-1.61-.91-2.993-1.071v-3.988c.85.137 1.394.448 2 .795.928.53 1.979 1.132 3.993 1.132zm-5.993 4.074c.849.137 1.394.448 2 .794.928.53 1.979 1.132 3.993 1.132 2.015 0 3.067-.601 3.996-1.132.815-.466 1.519-.868 3.003-.868 1.485 0 2.19.402 3.006.868.929.531 1.981 1.132 3.998 1.132.357 0 .688-.025 1.009-.063 0 .022-.005.041-.005.063 0 1.362.745 2.432 1.57 3.372-.661.355-1.354.628-2.574.628-1.485 0-2.19-.402-3.006-.868-.928-.531-1.981-1.132-3.998-1.132-2.015 0-3.067.601-3.996 1.132-.815.466-1.518.868-3.003.868-1.482 0-2.186-.402-3-.868-.761-.435-1.604-.917-2.993-1.077zm47-8.074c0 2.092-1.62 3.795-3.668 3.966-.197-.459-.356-1-.521-1.566-.424-1.449-.904-3.09-2.299-3.918-.928-.551-1.973-.545-2.996-.38l-2.102-2.102h7.586c2.206 0 4 1.794 4 4zm-40.571-29.493c.242-1.453 1.487-2.507 2.96-2.507h9.611v2h-8.117c-1.007 0-1.86.753-1.984 1.752l-.782 6.248h-2.937zm-13.429 9.493h28c.551 0 1 .449 1 1s-.449 1-1 1h-28c-.551 0-1-.449-1-1s.449-1 1-1zm1.08 4h25.84l-.769 10h-8.151c-3.309 0-6 2.691-6 6 0 .673.124 1.337.343 1.967-1.054-.101-1.665-.444-2.349-.835-.929-.53-1.98-1.132-3.994-1.132h-1v3.51c-.844.323-1.628.66-2.342 1.012zm3.92 21.662v8.338h1c1.482 0 2.186.402 3 .868.928.53 1.979 1.132 3.993 1.132 2.015 0 3.067-.601 3.996-1.132.815-.466 1.519-.868 3.003-.868 1.485 0 2.19.402 3.006.868.929.531 1.981 1.132 3.998 1.132 1.983 0 3.033-.581 3.951-1.105.205.246.386.487.519.723.298.529.505 1.234.723 1.981.217.743.452 1.535.814 2.243-1.649.094-3.317.158-5.003.158-17.09 0-29-4.743-29-9 0-1.841 2.17-3.753 6-5.338zm52 11.338c0 4.257-11.91 9-29 9s-29-4.743-29-9v-1.905c4.739 4.51 17.159 6.905 29 6.905 2.34 0 4.664-.094 6.921-.27.473.193.969.268 1.472.268.84 0 1.699-.204 2.498-.394.76-.18 1.479-.351 2.109-.351s1.349.17 2.109.351c1.425.338 3.041.721 4.403-.087.928-.551 1.448-1.463 1.819-2.437 3.448-1.13 6.044-2.507 7.67-4.052v1.972zm-6.914-.301c.132-.401.273-.773.447-1.081.279-.496.758-1.008 1.265-1.552 1.032-1.105 2.202-2.359 2.202-4.066 0-1.634-1.071-2.85-2.067-3.921 3.222 1.496 5.067 3.264 5.067 4.921 0 1.983-2.55 4.059-6.914 5.699zm-9.086-13.699c-3.86 0-7 3.14-7 7s3.14 7 7 7 7-3.14 7-7-3.14-7-7-7zm0 12c-2.757 0-5-2.243-5-5s2.243-5 5-5 5 2.243 5 5-2.243 5-5 5zm-35.092-23.094-1.994.153-.154-1.994 1.994-.153zm-1.687 4.141-.153-1.994 1.994-.153.153 1.994zm1.38-8.13-1.994.153-.153-1.994 1.994-.153z" fill="#1d4988"/></svg>