<svg height="480pt" viewBox="-8 0 480 480.09847" width="480pt" xmlns="http://www.w3.org/2000/svg" xmlns:xlink="http://www.w3.org/1999/xlink"><linearGradient id="a" gradientUnits="userSpaceOnUse" x1="31.6368" x2="408.5248" y1="30.232251" y2="407.112251"><stop offset="0" stop-color="#662d91"/><stop offset=".437" stop-color="#3873b3"/><stop offset="1" stop-color="#00c9dd"/></linearGradient><path d="m209.523438 95.410156c-2.84375-27.988281-16.648438-53.707031-38.398438-71.546875-21.523438-17.847656-49.347656-26.242187-77.152344-23.277343-58.074218 6.613281-99.808594 59.023437-93.253906 117.101562l35.511719 242.175781c.296875 2.054688 1.378906 3.914063 3.023437 5.183594 7.851563 38.648437 41.738282 66.484375 81.175782 66.679687 2.914062 0 5.828124-.152343 8.726562-.453124 44.015625-4.789063 76.570312-43.207032 74.074219-87.410157.0625-.46875.085937-.941406.0625-1.414062l-4.746094-121.417969 7.554687-85.277344c3.695313-13.109375 4.859376-26.800781 3.421876-40.34375zm-19.007813 36.679688c-.144531.492187-.238281 1-.277344 1.511718l-7.671875 86.542969c-.027344.339844-.027344.683594 0 1.023438l4.710938 120.390625c-.085938.582031-.109375 1.167968-.074219 1.753906 2.972656 36.230469-23.53125 68.207031-59.683594 72.003906-36.15625 3.800782-68.726562-21.960937-73.355469-58.019531-.28125-1.980469-1.296874-3.777344-2.847656-5.039063l-34.734375-236.570312c-5.484375-49.203125 29.875-93.570312 79.0625-99.199219 23.535157-2.515625 47.089844 4.585938 65.3125 19.695313 28.082031 23.222656 39.710938 60.894531 29.601563 95.90625zm-16.796875 28c2.855469 11.304687 3.355469 23.074218 1.46875 34.582031l-12.09375 74.207031c-.710938 4.363282-4.820312 7.328125-9.183594 6.617188-4.363281-.707032-7.328125-4.820313-6.617187-9.183594l12.097656-74.214844c5.335937-32.648437-13.132813-64.519531-44.113281-76.121094l-9.367188-3.519531-9.671875 3.902344c-22.980469 9.292969-39.277343 30.117187-42.777343 54.65625l-.136719 1c-1.671875 11.785156-.292969 23.796875 4 34.898437l25.738281 66.15625c1.15625 2.691407.75 5.792969-1.054688 8.097657-1.804687 2.304687-4.722656 3.4375-7.609374 2.957031-2.886719-.480469-5.28125-2.496094-6.242188-5.261719l-25.679688-66.160156c-5.300781-13.632813-7.007812-28.402344-4.96875-42.886719l.167969-.992187c4.308594-30.210938 24.363281-55.851563 52.648438-67.3125l6.976562-2.808594-3.625-33.773437c-.222656-2.113282.402344-4.226563 1.738281-5.878907 1.335938-1.648437 3.269532-2.699219 5.382813-2.921875 4.382813-.417968 8.292969 2.746094 8.800781 7.121094l3.664063 34.863281 7.65625 2.871094c26.242187 9.839844 45.988281 31.929687 52.832031 59.113281zm47.492188 216.285156c-.097657.460938-.160157.929688-.175782 1.402344-10.253906 42.429687 14.171875 85.542968 55.839844 98.554687 41.671875 13.011719 86.289062-8.539062 102-49.269531 1.84375-.960938 3.238281-2.601562 3.890625-4.574219l77.109375-232.609375c7.859375-27.023437 4.695312-56.058594-8.796875-80.757812-13.269531-24.613282-35.925781-42.820313-62.816406-50.480469-56.21875-15.625-114.476563 17.1875-130.257813 73.359375-3.769531 13.09375-5.003906 26.789062-3.640625 40.34375l-7.375 85.289062zm41.507812-115.855469c.070312-.332031.121094-.667969.148438-1.007812l7.480468-86.558594c.054688-.515625.054688-1.03125 0-1.542969-1.273437-11.757812-.246094-23.648437 3.023438-35.011718 13.320312-47.707032 62.75-75.625 110.480468-62.398438 22.765626 6.496094 41.9375 21.914062 53.167969 42.753906 11.433594 20.90625 14.148438 45.484375 7.554688 68.382813l-75.328125 227.289062c-1.738282.976563-3.046875 2.570313-3.671875 4.460938-10.828125 34.695312-47.371094 54.398437-82.304688 44.382812-34.933593-10.015625-55.488281-46.085937-46.289062-81.246093.140625-.566407.214843-1.148438.222656-1.734376zm10.828125 50.402344.984375-75.203125c.515625-40.703125 29.703125-75.378906 69.722656-82.832031l8-1.503907 9.65625-33.6875c.71875-2.824218 2.914063-5.03125 5.734375-5.765624 2.820313-.734376 5.816407.125 7.820313 2.238281 2.007812 2.113281 2.703125 5.152343 1.820312 7.929687l-9.359375 32.648438 6.398438 4c25.867187 16.175781 41.164062 44.898437 40.160156 75.390625l-.039063 1.070312c-.511718 14.613281-4.761718 28.851563-12.34375 41.351563l-36.800781 60.683594c-1.449219 2.507812-4.148437 4.035156-7.046875 3.992187-2.898437-.042969-5.546875-1.652344-6.921875-4.203125-1.375-2.554688-1.261719-5.648438.296875-8.09375l36.800782-60.679688c6.15625-10.160156 9.609374-21.730468 10.03125-33.601562v-1.070312c.796874-24.765626-11.636719-48.089844-32.640626-61.234376l-8.855468-5.527343-9.824219 1.839843c-32.523437 6.054688-56.246094 34.234376-56.664063 67.3125l-.984374 75.199219c-.054688 4.378907-3.621094 7.898438-8 7.894531h-.09375c-4.414063-.097656-7.910157-3.753906-7.816407-8.167968zm0 0" fill="#1d4988"/></svg>