<svg id="_x33_0" enable-background="new 0 0 64 64" height="512" viewBox="0 0 64 64" width="512" xmlns="http://www.w3.org/2000/svg" xmlns:xlink="http://www.w3.org/1999/xlink"><linearGradient id="SVGID_1_" gradientUnits="userSpaceOnUse" x1="32" x2="32" y1="63" y2="1"><stop offset="0" stop-color="#9f2fff"/><stop offset="1" stop-color="#0bb1d3"/></linearGradient><path d="m33 40c0-7.168-5.832-13-13-13s-13 5.832-13 13 5.832 13 13 13 13-5.832 13-13zm-4.497 6.968c-.897-.81-1.986-1.473-3.216-1.967.453-1.574.713-3.255.713-5.001s-.26-3.427-.712-5.002c1.23-.493 2.318-1.157 3.216-1.967 1.558 1.899 2.496 4.326 2.496 6.969s-.938 5.07-2.497 6.968zm-3.887-.081c.951.39 1.789.9 2.48 1.504-1.228 1.04-2.688 1.808-4.289 2.232l1.488-2.976c.121-.242.212-.507.321-.76zm-8.616-6.887c0-1.518.229-3.01.621-4.398 1.074.252 2.206.398 3.379.398s2.305-.146 3.379-.398c.392 1.388.621 2.88.621 4.398s-.229 3.01-.621 4.398c-1.074-.252-2.206-.398-3.379-.398s-2.305.146-3.379.398c-.392-1.388-.621-2.88-.621-4.398zm8.295-7.647-1.488-2.976c1.601.423 3.061 1.191 4.289 2.232-.691.604-1.529 1.115-2.48 1.504-.109-.253-.2-.518-.321-.76zm-3.903-3.333 2.114 4.227c.073.145.125.309.193.46-.863.187-1.769.293-2.699.293s-1.836-.106-2.698-.293c.068-.15.12-.315.193-.46l2.114-4.227c.13-.005.259-.02.391-.02s.261.015.392.02zm-5.008 4.093c-.951-.39-1.789-.9-2.48-1.504 1.228-1.04 2.688-1.808 4.289-2.232l-1.488 2.976c-.121.242-.212.507-.321.76zm-3.887-.081c.898.81 1.986 1.473 3.216 1.966-.453 1.574-.713 3.256-.713 5.002s.26 3.428.712 5.002c-1.23.493-2.318 1.157-3.216 1.966-1.558-1.898-2.496-4.325-2.496-6.968s.938-5.07 2.497-6.968zm4.208 14.615 1.488 2.976c-1.601-.423-3.061-1.192-4.289-2.232.692-.604 1.529-1.114 2.48-1.504.109.253.2.518.321.76zm3.903 3.333-2.114-4.227c-.073-.145-.125-.309-.193-.46.863-.187 1.769-.293 2.699-.293s1.836.106 2.698.293c-.068.15-.12.315-.193.46l-2.114 4.227c-.13.005-.259.02-.391.02s-.261-.015-.392-.02zm38.392-49.98h-24c-2.757 0-5 2.243-5 5v9h-23c-2.757 0-5 2.243-5 5v38c0 2.757 2.243 5 5 5h28c2.757 0 5-2.243 5-5v-9h19c2.757 0 5-2.243 5-5v-38c0-2.757-2.243-5-5-5zm-27 5c0-1.302.839-2.402 2-2.816v11.816h-2zm6 52c0 1.654-1.346 3-3 3h-28c-1.654 0-3-1.346-3-3v-38c0-1.654 1.346-3 3-3h28c1.654 0 3 1.346 3 3zm-2-42.899v-12.101h6v44h-2v-27c0-2.414-1.721-4.434-4-4.899zm26 28.899c0 1.654-1.346 3-3 3h-15v-44h15c1.654 0 3 1.346 3 3zm-44-23h-4v-2h4zm12 0h-10v-2h10zm26-16h-8v8h4v4h8v-8h-4zm-6 2h4v4h-4zm8 4v4h-4v-2h2v-2zm-46 10h-2v-2h2zm-4 0h-2v-2h2zm48 8h2v16h-2zm-4-4h2v20h-2zm-4 0h2v20h-2zm8 0h2v2h-2zm-22 32h2v2h-2zm-4 0h2v2h-2zm-4 0h2v2h-2z" fill="#1d4988"/></svg>